<svg width="140" height="141" viewBox="0 0 140 141" fill="none" xmlns="http://www.w3.org/2000/svg">
<path d="M61.2779 135.734C61.2779 135.734 71.4255 114.998 64.6348 101.886C61.3143 95.4739 55.3386 91.6908 49.6485 88.0886C43.7021 84.3241 38.0676 80.757 36.1013 74.5936C36.1013 74.5936 29.3868 77.3381 32.5918 85.114C35.7968 92.89 42.0521 96.7018 42.0521 96.7018C14.6614 85.1352 7.63003 73.814 10.9246 44.4046C3.14901 62.3979 2.68431 74.8986 9.17044 88.011C15.6566 101.123 23.6647 106.765 40.984 117.438C58.3033 128.111 61.2779 135.734 61.2779 135.734Z" fill="url(#paint0_linear_67_8900)"/>
<path d="M78.7227 135.734C78.7227 135.734 68.5752 114.998 75.3658 101.886C78.6864 95.4739 84.6621 91.6908 90.3522 88.0886C96.2986 84.3241 101.933 80.757 103.899 74.5936C103.899 74.5936 110.614 77.3381 107.409 85.114C104.204 92.89 97.9485 96.7018 97.9485 96.7018C125.339 85.1352 132.371 73.814 129.076 44.4046C136.852 62.3979 137.316 74.8986 130.83 88.011C124.344 101.123 116.336 106.765 99.0166 117.438C81.6973 128.111 78.7227 135.734 78.7227 135.734Z" fill="url(#paint1_linear_67_8900)"/>
<path fill-rule="evenodd" clip-rule="evenodd" d="M85.8345 5.06804C88.434 5.06804 91.0295 5.43442 93.4972 6.26187C108.703 11.2018 114.183 27.8742 109.606 42.4471C107.01 49.8942 102.767 56.6907 97.2092 62.2441C89.2539 69.9422 80.5241 76.7758 71.1269 82.6626L70.0969 83.2842L69.0258 82.6215C59.5956 76.7758 50.8164 69.9422 42.787 62.2029C37.2665 56.6496 33.019 49.8942 30.3823 42.4471C25.727 27.8742 31.2063 11.2018 46.5772 6.17542C47.7719 5.76375 49.0037 5.47559 50.2396 5.31504L51.4343 5.06738C52.6125 5.06738 52.9686 5.0676 53.2734 5.06778C53.5015 5.06792 53.7009 5.06804 54.1946 5.06804H54.6478C57.2432 5.14626 59.7563 5.59909 62.1911 6.42653H62.4342C62.5989 6.50475 62.7225 6.5912 62.8049 6.66941C63.7154 6.9617 64.5764 7.29103 65.4004 7.74386L66.9659 8.44369C67.3442 8.64529 67.7688 8.95332 68.1358 9.21955C68.3683 9.38823 68.5776 9.54012 68.7374 9.63751C68.8046 9.67715 68.873 9.717 68.9418 9.75718C69.2951 9.96322 69.6631 10.1779 69.9733 10.4156C74.5504 6.92053 80.108 5.02687 85.8345 5.06804ZM72.3038 26.6152C71.6857 25.9976 70.8474 25.6506 69.9733 25.6506C69.0992 25.6506 68.2609 25.9976 67.6428 26.6152C67.0247 27.2328 66.6775 28.0705 66.6775 28.9439V38.8238H56.79C55.9159 38.8238 55.0776 39.1708 54.4595 39.7884C53.8414 40.406 53.4942 41.2437 53.4942 42.1172C53.4942 42.9906 53.8414 43.8283 54.4595 44.4459C55.0776 45.0635 55.9159 45.4105 56.79 45.4105H66.6775V55.2904C66.6775 56.1639 67.0247 57.0015 67.6428 57.6191C68.2609 58.2368 69.0992 58.5837 69.9733 58.5837C70.8474 58.5837 71.6857 58.2368 72.3038 57.6191C72.9219 57.0015 73.2691 56.1639 73.2691 55.2904V45.4105H83.1565C84.0307 45.4105 84.869 45.0635 85.487 44.4459C86.1051 43.8283 86.4524 42.9906 86.4524 42.1172C86.4524 41.2437 86.1051 40.406 85.487 39.7884C84.869 39.1708 84.0307 38.8238 83.1565 38.8238H73.2691V28.9439C73.2691 28.0705 72.9219 27.2328 72.3038 26.6152Z" fill="url(#paint2_linear_67_8900)"/>
<defs>
<linearGradient id="paint0_linear_67_8900" x1="135.334" y1="135.734" x2="-20.1479" y2="90.6536" gradientUnits="userSpaceOnUse">
<stop stop-color="#5774CB"/>
<stop offset="1" stop-color="#5774CB"/>
</linearGradient>
<linearGradient id="paint1_linear_67_8900" x1="135.334" y1="135.734" x2="-20.1479" y2="90.6536" gradientUnits="userSpaceOnUse">
<stop stop-color="#5774CB"/>
<stop offset="1" stop-color="#5774CB"/>
</linearGradient>
<linearGradient id="paint2_linear_67_8900" x1="135.334" y1="135.734" x2="-20.1479" y2="90.6536" gradientUnits="userSpaceOnUse">
<stop stop-color="#5774CB"/>
<stop offset="1" stop-color="#5774CB"/>
</linearGradient>
</defs>
</svg>
